<svg width="28" height="27" viewBox="0 0 28 27" fill="none" xmlns="http://www.w3.org/2000/svg">
<path d="M6.00545 6.02077V5.60656L5.71256 5.31366L2.36636 1.96747L2.71991 1.61392L6.06611 4.96011L6.359 5.25301H6.77321H25.8254C25.9635 5.25301 26.0754 5.36492 26.0754 5.50301C26.0754 5.52739 26.0718 5.55181 26.0647 5.57546L23.0649 15.5748C23.0649 15.5749 23.0649 15.5749 23.0649 15.5749C23.0332 15.6805 22.9358 15.753 22.8254 15.753H7.50545H6.50545V16.753V19.253V20.253H7.50545H20.2555V20.753H6.25545C6.11737 20.753 6.00545 20.6411 6.00545 20.503V6.02077ZM6.88045 25.753C6.39721 25.753 6.00545 25.3612 6.00545 24.878C6.00545 24.3948 6.39721 24.003 6.88045 24.003C7.36369 24.003 7.75545 24.3948 7.75545 24.878C7.75545 25.3612 7.36369 25.753 6.88045 25.753ZM21.8805 25.753C21.3972 25.753 21.0055 25.3613 21.0055 24.878C21.0055 24.3947 21.3972 24.003 21.8805 24.003C22.3637 24.003 22.7555 24.3948 22.7555 24.878C22.7555 25.3612 22.3637 25.753 21.8805 25.753Z" fill="white" stroke="white" stroke-width="2"/>
</svg>
