<svg width="26" height="24" viewBox="0 0 26 24" fill="none" xmlns="http://www.w3.org/2000/svg">
<path d="M12.6464 3.60355L13 3.95711L13.3536 3.60355C14.5436 2.41346 16.4738 1.25 18.625 1.25C22.1156 1.25 25 4.11987 25 8.25C25 12.4316 22.7624 15.7466 20.0789 18.2768C17.7002 20.5196 15.0206 22.1005 13.3409 23.0916C13.2221 23.1616 13.1083 23.2288 13 23.293C12.8917 23.2288 12.7779 23.1616 12.6591 23.0916C10.9794 22.1005 8.29983 20.5196 5.92113 18.2768C3.23756 15.7466 1 12.4316 1 8.25C1 4.12215 3.92927 1.25 7.375 1.25C9.52612 1.25 11.4564 2.41347 12.6464 3.60355Z" fill="white" stroke="#212121"/>
</svg>
