<svg width="14" height="14" viewBox="0 0 14 14" fill="none" xmlns="http://www.w3.org/2000/svg">
<path d="M7.00004 10.5C5.06704 10.5 3.50004 8.93299 3.50004 7C3.50004 5.067 5.06704 3.5 7.00004 3.5C8.93303 3.5 10.5 5.067 10.5 7C10.5 8.93299 8.93303 10.5 7.00004 10.5ZM6.41671 0.583328H7.58337V2.33333H6.41671V0.583328ZM6.41671 11.6667H7.58337V13.4167H6.41671V11.6667ZM2.05029 2.8752L2.87525 2.05025L4.11269 3.28769L3.28773 4.11264L2.05029 2.8752ZM9.88737 10.7123L10.7124 9.88732L11.9498 11.1248L11.1249 11.9498L9.88737 10.7123ZM11.1249 2.05025L11.9498 2.8752L10.7124 4.11264L9.88737 3.28769L11.1249 2.05025ZM3.28773 9.88732L4.11269 10.7123L2.87525 11.9498L2.05029 11.1248L3.28773 9.88732ZM13.4167 6.41666V7.58333H11.6667V6.41666H13.4167ZM2.33337 6.41666V7.58333H0.583374V6.41666H2.33337Z" fill="white"/>
</svg>
